<svg xmlns="http://www.w3.org/2000/svg" viewBox="0 0 127.26 72.41"><defs><style>.cls-1{fill:#231f20;}</style></defs><g id="Layer_2" data-name="Layer 2"><g id="Layer_1-2" data-name="Layer 1"><path class="cls-1" d="M39.89,3.25l.91-.71,1.27-1L43.31.62c.38-.3.63-.5.77-.59a.09.09,0,0,1,.06,0h.17s.07,0,.07,0V20.58a5.53,5.53,0,0,0,.08,1,2.86,2.86,0,0,0,.49.95,3.38,3.38,0,0,0,.67.64,1.71,1.71,0,0,0,.8.33v.07l0,.07H40.19s-.06,0-.06-.07v-.07a.05.05,0,0,1,.06-.06,1.36,1.36,0,0,0,.72-.25,2.92,2.92,0,0,0,.72-.69,2.22,2.22,0,0,0,.47-.92,5.66,5.66,0,0,0,.07-1V5.12A4.33,4.33,0,0,0,42,3.6.81.81,0,0,0,41.13,3,2.33,2.33,0,0,0,40,3.38a0,0,0,0,1-.06,0l0-.07A0,0,0,0,1,39.89,3.25Z"/><path class="cls-1" d="M48.63,10.47l.9-.7,1.27-1c.45-.33.86-.65,1.24-1l.77-.59H53c.05,0,.07,0,.07,0V20.58a5.53,5.53,0,0,0,.08,1,2.86,2.86,0,0,0,.49.95,3.38,3.38,0,0,0,.67.64,1.71,1.71,0,0,0,.8.33v.07l0,.07H48.93s-.07,0-.07-.07v-.07s0-.06.07-.06a1.42,1.42,0,0,0,.72-.25,2.63,2.63,0,0,0,.68-.69,2.11,2.11,0,0,0,.5-.92,5.66,5.66,0,0,0,.07-1v-8.2a4.3,4.3,0,0,0-.22-1.54.8.8,0,0,0-.81-.57,2.37,2.37,0,0,0-1.14.37s0,0-.07,0l0-.07S48.6,10.5,48.63,10.47Zm2-7.12a1.33,1.33,0,0,1,.39-1A1.26,1.26,0,0,1,52,2a1.31,1.31,0,0,1,1,.41,1.3,1.3,0,0,1,.4,1,1.25,1.25,0,0,1-.4.95,1.33,1.33,0,0,1-1,.39,1.33,1.33,0,0,1-1.34-1.34Z"/><path class="cls-1" d="M57.36,10.37l.9-.7,1.28-1,1.23-.95.77-.59.07,0h.17s.06,0,.06,0v3.75a13.9,13.9,0,0,1,1.12-1A10.57,10.57,0,0,1,64.27,9a7.88,7.88,0,0,1,1.42-.65,4.47,4.47,0,0,1,1.48-.25,6.77,6.77,0,0,1,4.21,1.2A4.67,4.67,0,0,1,73,13.25v7.33a4.69,4.69,0,0,0,.09,1,2.63,2.63,0,0,0,.48.95,3.67,3.67,0,0,0,.67.64,1.79,1.79,0,0,0,.81.33v.07l0,.07H68.77a.06.06,0,0,1-.07-.07v-.07s0-.06.07-.06a1.42,1.42,0,0,0,.72-.25,2.92,2.92,0,0,0,.72-.69,2.35,2.35,0,0,0,.47-.92,6.77,6.77,0,0,0,.07-1v-7.4a5.6,5.6,0,0,0-1-3.43,3.09,3.09,0,0,0-2.59-1.32,4.06,4.06,0,0,0-1.48.29,8.8,8.8,0,0,0-1.44.72,10.32,10.32,0,0,0-1.3,1l-1.11,1v9.2a4.69,4.69,0,0,0,.09,1,2.8,2.8,0,0,0,.48.95,3.67,3.67,0,0,0,.67.64,1.74,1.74,0,0,0,.81.33v.07c0,.05,0,.07,0,.07H57.66a.06.06,0,0,1-.07-.07v-.07s0-.06.07-.06a1.42,1.42,0,0,0,.72-.25,2.92,2.92,0,0,0,.72-.69,2.35,2.35,0,0,0,.47-.92,6.77,6.77,0,0,0,.07-1V12.25a4.53,4.53,0,0,0-.22-1.52.81.81,0,0,0-.82-.59,2.27,2.27,0,0,0-1.14.37s0,0-.07,0l0-.07S57.34,10.4,57.36,10.37Z"/><path class="cls-1" d="M77.2,3.25l.91-.71,1.27-1L80.62.62c.38-.3.63-.5.77-.59a.09.09,0,0,1,.06,0h.17s.07,0,.07,0V10.74c.31-.31.65-.63,1-1A7,7,0,0,1,84,8.93a9.11,9.11,0,0,1,1.44-.6A5.51,5.51,0,0,1,87,8.1a6.75,6.75,0,0,1,4.21,1.2,4.67,4.67,0,0,1,1.58,3.95v7.33a4.78,4.78,0,0,0,.08,1,2.86,2.86,0,0,0,.49.95,3.38,3.38,0,0,0,.67.64,1.71,1.71,0,0,0,.8.33v.07l0,.07H88.61s-.06,0-.06-.07v-.07a.05.05,0,0,1,.06-.06,1.36,1.36,0,0,0,.72-.25,2.51,2.51,0,0,0,.69-.69,2.11,2.11,0,0,0,.5-.92,5.66,5.66,0,0,0,.07-1v-7.4a5.6,5.6,0,0,0-1-3.43A3.12,3.12,0,0,0,87,8.43a5.35,5.35,0,0,0-1.6.25,7,7,0,0,0-1.44.66,7.4,7.4,0,0,0-1.22.9c-.37.33-.71.67-1,1v9.34a4.78,4.78,0,0,0,.08,1,2.86,2.86,0,0,0,.49.95,3.38,3.38,0,0,0,.67.64,1.71,1.71,0,0,0,.8.33v.07c0,.05,0,.07,0,.07H77.5s-.06,0-.06-.07v-.07a.05.05,0,0,1,.06-.06,1.36,1.36,0,0,0,.72-.25,2.92,2.92,0,0,0,.72-.69,2.22,2.22,0,0,0,.47-.92,5.66,5.66,0,0,0,.07-1V5.12a4.33,4.33,0,0,0-.22-1.52A.81.81,0,0,0,78.44,3a2.33,2.33,0,0,0-1.14.37,0,0,0,0,1-.06,0l0-.07A0,0,0,0,1,77.2,3.25Z"/><path class="cls-1" d="M23.5,28.53l.9-.71,1.27-1c.45-.33.86-.65,1.24-1l.77-.59.07,0h.17s.06,0,.06,0V36c.32-.31.66-.63,1-1a7,7,0,0,1,1.26-.86,8.63,8.63,0,0,1,1.43-.6,5.61,5.61,0,0,1,1.59-.23,6.78,6.78,0,0,1,4.22,1.2,4.67,4.67,0,0,1,1.57,4v7.33a4.69,4.69,0,0,0,.09,1,2.63,2.63,0,0,0,.48.95,3.67,3.67,0,0,0,.67.64,1.75,1.75,0,0,0,.8.33v.07l0,.07H34.91a.06.06,0,0,1-.07-.07V48.8s0-.06.07-.06a1.42,1.42,0,0,0,.72-.25,2.51,2.51,0,0,0,.69-.69,2.23,2.23,0,0,0,.5-.92,7,7,0,0,0,.06-1v-7.4a5.6,5.6,0,0,0-1-3.43,3.13,3.13,0,0,0-2.63-1.32,5.3,5.3,0,0,0-1.6.25,6.75,6.75,0,0,0-1.44.66,7,7,0,0,0-1.23.9c-.36.33-.7.67-1,1v9.34a4.69,4.69,0,0,0,.09,1,2.8,2.8,0,0,0,.48.95,3.67,3.67,0,0,0,.67.64,1.74,1.74,0,0,0,.81.33v.07c0,.05,0,.07,0,.07H23.8a.06.06,0,0,1-.07-.07V48.8s0-.06.07-.06a1.42,1.42,0,0,0,.72-.25,2.92,2.92,0,0,0,.72-.69,2.35,2.35,0,0,0,.47-.92,6.77,6.77,0,0,0,.07-1V30.4a4.53,4.53,0,0,0-.22-1.52.82.82,0,0,0-.82-.59,2.27,2.27,0,0,0-1.14.37s0,0-.07,0l0-.07A0,0,0,0,1,23.5,28.53Z"/><path class="cls-1" d="M42,41.31a7.3,7.3,0,0,1,.64-3.06,8,8,0,0,1,4.26-4.19,8.21,8.21,0,0,1,6.26,0,8.1,8.1,0,0,1,4.27,4.19,7.7,7.7,0,0,1,0,6.1,8,8,0,0,1-1.73,2.5,8.18,8.18,0,0,1-2.54,1.67,8.21,8.21,0,0,1-6.26,0,8.18,8.18,0,0,1-2.54-1.67,8,8,0,0,1-1.72-2.5A7.34,7.34,0,0,1,42,41.31Zm3,2.91a9,9,0,0,0,2.92,3.14,6.49,6.49,0,0,0,3.57,1.14,4.57,4.57,0,0,0,2.37-.63,4.42,4.42,0,0,0,1.69-1.66,6,6,0,0,0,.79-2.34,8.34,8.34,0,0,0-.12-2.71,9.66,9.66,0,0,0-4-5.93,6.58,6.58,0,0,0-3.53-1.12,5.36,5.36,0,0,0-1.22.14,3.93,3.93,0,0,0-1.16.47,4.63,4.63,0,0,0-1.67,1.65,5.92,5.92,0,0,0-.8,2.34,8.12,8.12,0,0,0,.11,2.72A9.46,9.46,0,0,0,44.92,44.22Z"/><path class="cls-1" d="M60.28,45.12a3.85,3.85,0,0,1,.48-1.94A5,5,0,0,1,62,41.73a7.71,7.71,0,0,1,1.76-1A17.78,17.78,0,0,1,65.7,40a16,16,0,0,1,1.75-.44l1.32-.22V36.42a2.57,2.57,0,0,0-2.94-3,2.14,2.14,0,0,0-1.25.31,1.9,1.9,0,0,0-.69.75,4.33,4.33,0,0,0-.37,1c-.09.34-.18.67-.27,1a2,2,0,0,1-.38.75.93.93,0,0,1-.75.3.77.77,0,0,1-.71-.38,1.67,1.67,0,0,1-.23-.85A2.21,2.21,0,0,1,61.56,35a3.86,3.86,0,0,1,1-1,5.33,5.33,0,0,1,1.49-.67,6.7,6.7,0,0,1,1.74-.23,7.87,7.87,0,0,1,2.46.33,3.72,3.72,0,0,1,1.57,1,3.91,3.91,0,0,1,.84,1.62A9,9,0,0,1,71,38.3v8.09a1.48,1.48,0,0,0,.25,1,1,1,0,0,0,.85.31,1.22,1.22,0,0,0,.66-.19,2.13,2.13,0,0,0,.48-.4,2.29,2.29,0,0,0,.4-.62q.14-.14.24,0c.11,0,.13.12.06.23s-.28.51-.45.79a4.06,4.06,0,0,1-.6.78,2.92,2.92,0,0,1-.82.61,2.51,2.51,0,0,1-1.1.23,2.48,2.48,0,0,1-1-.17,1.63,1.63,0,0,1-.65-.46,1.82,1.82,0,0,1-.35-.71,5.32,5.32,0,0,1-.14-.83,6.67,6.67,0,0,1-2.07,1.39,7.07,7.07,0,0,1-2.41.58,5.46,5.46,0,0,1-1,0,3.52,3.52,0,0,1-.92-.21,3.33,3.33,0,0,1-1.52-1.21A4,4,0,0,1,60.28,45.12Zm8.46,1.34c0-.24,0-.49,0-.73s0-.48,0-.71V39.7c-.26,0-.6.1-1,.15S67,40,66.5,40.1A6.73,6.73,0,0,0,64,41.24a4.28,4.28,0,0,0-1.34,1.62,3.51,3.51,0,0,0-.32,1.81,4,4,0,0,0,.5,1.66A3.47,3.47,0,0,0,64,47.55,2.92,2.92,0,0,0,65.6,48a3.55,3.55,0,0,0,1.72-.46A5.35,5.35,0,0,0,68.74,46.46Z"/><path class="cls-1" d="M75.5,35.65l.9-.7,1.27-1c.45-.33.86-.65,1.24-.95l.77-.59.07,0h.17s.06,0,.06,0v3.75c.34-.34.71-.67,1.12-1a11.69,11.69,0,0,1,1.31-.9,7.88,7.88,0,0,1,1.42-.65,4.45,4.45,0,0,1,1.47-.25,6.78,6.78,0,0,1,4.22,1.2,4.67,4.67,0,0,1,1.57,4v7.33a4.69,4.69,0,0,0,.09,1,2.63,2.63,0,0,0,.48.95,3.67,3.67,0,0,0,.67.64,1.75,1.75,0,0,0,.8.33v.07l0,.07H86.91a.06.06,0,0,1-.07-.07V48.8s0-.06.07-.06a1.42,1.42,0,0,0,.72-.25,2.92,2.92,0,0,0,.72-.69,2.35,2.35,0,0,0,.47-.92,7,7,0,0,0,.06-1v-7.4a5.6,5.6,0,0,0-1-3.43,3.09,3.09,0,0,0-2.6-1.32,4,4,0,0,0-1.47.29,8.8,8.8,0,0,0-1.44.72,9.65,9.65,0,0,0-1.3,1c-.4.35-.77.67-1.11,1v9.2a4.69,4.69,0,0,0,.09,1,2.8,2.8,0,0,0,.48.95,3.67,3.67,0,0,0,.67.64,1.74,1.74,0,0,0,.81.33v.07c0,.05,0,.07,0,.07H75.8a.06.06,0,0,1-.07-.07V48.8s0-.06.07-.06a1.42,1.42,0,0,0,.72-.25,2.92,2.92,0,0,0,.72-.69,2.35,2.35,0,0,0,.47-.92,6.77,6.77,0,0,0,.07-1V37.53A4.63,4.63,0,0,0,77.56,36a.81.81,0,0,0-.82-.58,2.27,2.27,0,0,0-1.14.37s0,0-.07,0l0-.07S75.48,35.68,75.5,35.65Z"/><path class="cls-1" d="M100.93,53.56a1.86,1.86,0,0,0,1.19-.31,1.88,1.88,0,0,0,.57-.72,5.68,5.68,0,0,0,.3-.88,1.81,1.81,0,0,1,.45-.81,2.64,2.64,0,0,1,.4-.31,1.05,1.05,0,0,1,.57-.15c.34,0,.5.18.5.55a2.14,2.14,0,0,1-.45,1.2,4.37,4.37,0,0,1-1.35,1.21,4.11,4.11,0,0,1-2.18.55,5.87,5.87,0,0,1-2.07-.37,5.63,5.63,0,0,1-1.79-1.05,5.51,5.51,0,0,1-1.28-1.63,4.45,4.45,0,0,1-.48-2.07,3.24,3.24,0,0,1,.33-1.44,4.41,4.41,0,0,1,.87-1.17,4.33,4.33,0,0,1,1.24-.8,3.58,3.58,0,0,1,1.41-.3,3.68,3.68,0,0,1,1.8.41,10.46,10.46,0,0,1,1.38.94,11.66,11.66,0,0,0,1.3,1,2.89,2.89,0,0,0,1.61.44,3.86,3.86,0,0,0,1.87-.44,2.58,2.58,0,0,0,1.11-1,1.85,1.85,0,0,0,.2-.83,1.38,1.38,0,0,0-.17-.77,1.78,1.78,0,0,0-.74-.75,2.61,2.61,0,0,0-1.3-.29,5.48,5.48,0,0,0-1.31.17,6.08,6.08,0,0,1-2.31.47A5.71,5.71,0,0,1,97.27,41a5.58,5.58,0,0,1,0-4.39,5.86,5.86,0,0,1,7.56-3,6.06,6.06,0,0,1,1.86,1.2,4.88,4.88,0,0,1,.41-1.7,4.41,4.41,0,0,1,.93-1.33,4.09,4.09,0,0,1,1.28-.85,3.78,3.78,0,0,1,1.46-.3,3.13,3.13,0,0,1,.8.1,1.27,1.27,0,0,1,.52.32,1,1,0,0,1,.3.47.78.78,0,0,1,0,.52,1,1,0,0,1-.44.46,1.15,1.15,0,0,1-.7.17,4.38,4.38,0,0,1-1-.12,3.59,3.59,0,0,0-1.09-.05,4.51,4.51,0,0,0-1.12.34,1.89,1.89,0,0,0-1,1.14,2.46,2.46,0,0,0-.1.5,3.48,3.48,0,0,0,0,.57v.06a5.85,5.85,0,0,1,1,1.69,5.54,5.54,0,0,1-.32,4.67,5.66,5.66,0,0,1-1.85,2h.4a2.81,2.81,0,0,1,1.49.35,2.17,2.17,0,0,1,.85.88,2.81,2.81,0,0,1,.28,1.86,3.71,3.71,0,0,1-.8,1.67,4.72,4.72,0,0,1-1.55,1.23,4.42,4.42,0,0,1-2,.46,3.06,3.06,0,0,1-1.66-.48c-.5-.32-1-.68-1.5-1.07a13.39,13.39,0,0,0-1.59-1.07,3.67,3.67,0,0,0-1.91-.49,1.9,1.9,0,0,0-1.4.5,2.31,2.31,0,0,0-.64,1.26A3.5,3.5,0,0,0,96,50.16a4.35,4.35,0,0,0,.9,1.64,4.93,4.93,0,0,0,1.65,1.25A5.38,5.38,0,0,0,100.93,53.56Zm-1.3-12.79a7,7,0,0,0,2.1,2.09,4.4,4.4,0,0,0,2.35.76A2.64,2.64,0,0,0,106.5,42a3.93,3.93,0,0,0,.32-1.59,6,6,0,0,0-.32-1.84,7.23,7.23,0,0,0-1-1.88,7.35,7.35,0,0,0-2.14-2.07,4.5,4.5,0,0,0-2.31-.74,2.63,2.63,0,0,0-1.51.44,2.76,2.76,0,0,0-.92,1.15,3.93,3.93,0,0,0-.32,1.59,5.88,5.88,0,0,0,.32,1.83A7,7,0,0,0,99.63,40.77Z"/><path class="cls-1" d="M6.8,66a15.73,15.73,0,0,1-2.11.12,2.89,2.89,0,0,1-1.48.58,1.25,1.25,0,0,1-.49-.12c-.15-.08-.22-.16-.22-.24s.15-.19.46-.26A9.17,9.17,0,0,1,4.45,66h.21a6.35,6.35,0,0,0,1.53-1.49,2.71,2.71,0,0,0,.66-1.49.58.58,0,0,0-.2-.46A.91.91,0,0,0,6,62.42a3,3,0,0,0-2.23,1.43,14.87,14.87,0,0,0-1.94,3.29,39.09,39.09,0,0,1-1,3.8c-.32,1-.6,1.44-.84,1.3,0,0-.07-.1-.07-.2a4.32,4.32,0,0,1,.3-1.21c.2-.56.53-1.45,1-2.67.07-.2.12-.35.17-.46l.2-.51c.21-1,.38-1.89.52-2.72a12.53,12.53,0,0,0,.21-1.61h.14a10.84,10.84,0,0,1-.16,1.35c-.11.69-.24,1.47-.4,2.34a14.29,14.29,0,0,1,1.91-3A2.92,2.92,0,0,1,6,62.26a1.76,1.76,0,0,1,.27,0,.71.71,0,0,1,.68.75,2.7,2.7,0,0,1-.63,1.49A6.79,6.79,0,0,1,4.86,66a13.75,13.75,0,0,0,1.95-.12,2.83,2.83,0,0,0,1.32-.49l.06.1A3,3,0,0,1,6.8,66ZM.74,71c.24-.77.5-1.77.77-3C1,69.32.61,70.33.37,71s-.32,1-.22,1.08S.5,71.77.74,71Zm2.47-4.37a2.66,2.66,0,0,0,1.28-.46H4.42A8.4,8.4,0,0,0,3,66.23c-.2,0-.29.1-.29.17s.05.09.17.15A1,1,0,0,0,3.21,66.62Z"/><path class="cls-1" d="M13.51,66.28a3,3,0,0,1-1.25.34,1,1,0,0,1-.36-.06c-.25-.09-.37-.35-.37-.78a10.63,10.63,0,0,1,.15-1.24,7.91,7.91,0,0,0,.12-1.17c0-.19,0-.29-.12-.29s-.32.21-.61.62-.73,1.09-1.31,2-1,1.59-1.33,2.08-.6.77-.8.81-.25,0-.25-.25a6.79,6.79,0,0,1,.48-1.8c.33-.89.92-2.44,1.8-4.66.56-1.44,1-2.54,1.25-3.31a3.52,3.52,0,0,0,.34-1.15s-.09.1-.17.3-.14.32-.17.37l-.1-.07a5.67,5.67,0,0,1,.31-.62c.07-.11.14-.15.22-.11s.05,0,.05.12A5.56,5.56,0,0,1,11,58.69c-.23.65-.65,1.74-1.25,3.27q-2.23,5.62-2.24,6.37c0,.11,0,.15.08.12.28-.1.94-1,2-2.79.52-.86,1-1.53,1.32-2s.62-.74.79-.74.18.17.18.51a5.71,5.71,0,0,1-.13,1.16,10,10,0,0,0-.14,1.21q0,.54.27.66a1.27,1.27,0,0,0,.34,0,3.07,3.07,0,0,0,1.2-.32,10.43,10.43,0,0,0,1.32-.73l.07.1A9.76,9.76,0,0,1,13.51,66.28Z"/><path class="cls-1" d="M17.56,66.19a5.06,5.06,0,0,1-1.13,1.39,1.63,1.63,0,0,1-1.22.5.43.43,0,0,1-.37-.25,1.28,1.28,0,0,1-.12-.6A4.55,4.55,0,0,1,15,65.75a.47.47,0,0,1-.12-.32,1.05,1.05,0,0,1,.23-.59,3.09,3.09,0,0,1,.6-.6,3.75,3.75,0,0,1,.5-.63l.1.1L16,64a2.82,2.82,0,0,1,1.38-.47c.51,0,.77.27.77.83a3.7,3.7,0,0,1-.53,1.67,10.67,10.67,0,0,0,3-.65l0,.13A11.12,11.12,0,0,1,17.56,66.19Zm-1.24,1.3a5.39,5.39,0,0,0,1.07-1.3l-.58,0a2.85,2.85,0,0,1-1.71-.38,4.88,4.88,0,0,0-.26,1.38c0,.45.13.7.37.73A1.42,1.42,0,0,0,16.32,67.49Zm-1.26-1.91a7.08,7.08,0,0,1,.46-1,1.18,1.18,0,0,0-.49.82A.64.64,0,0,0,15.06,65.58Zm1.55-1.69a4.27,4.27,0,0,0-.83.48,6.15,6.15,0,0,0-.63,1.33,1.5,1.5,0,0,0,.67.29,5.13,5.13,0,0,0,1.11.1l.53,0A3.7,3.7,0,0,0,18,64.39c0-.47-.2-.7-.61-.7A2,2,0,0,0,16.61,63.89Z"/><path class="cls-1" d="M25.07,59.7c.56,0,1.1-.09,1.64-.17v.13c-.91.11-2,.18-3.22.22l-.64,0c-.65,1.65-1.29,3.49-1.94,5.51-.31,1.11-.61,2.47-.92,4.08-.17.88-.3,1.48-.38,1.8s-.18.49-.28.51a.26.26,0,0,1-.2,0s-.06-.11-.06-.23a5.28,5.28,0,0,1,.21-1.16c.25-1,.73-2.69,1.46-4.94l.27-.94.1-.37c.24-.79.43-1.48.57-2.05a5.8,5.8,0,0,0,.22-1.44.86.86,0,0,0-.21-.69,5.13,5.13,0,0,0-1.27.27.41.41,0,0,1-.16,0c-.09,0-.09,0,0-.14a1.11,1.11,0,0,1,.4-.28,1.26,1.26,0,0,1,.57-.14,1.13,1.13,0,0,1,.51.12l0,0c.21,0,.55,0,1-.07a7.81,7.81,0,0,1,.9-1.9l.11.1a8,8,0,0,0-.87,1.78h.59ZM20.3,67.33c-.39,1.22-.68,2.24-.88,3s-.25,1.22-.16,1.22.14-.14.22-.42.21-.84.38-1.69C20.05,68.48,20.2,67.76,20.3,67.33Zm.95-7.48a1.12,1.12,0,0,0-.31,0,1.86,1.86,0,0,0-.27.11c-.07,0-.09.06-.07.06a4.27,4.27,0,0,1,.9-.19A.77.77,0,0,0,21.25,59.85Zm1.48.07-.85,0a1.22,1.22,0,0,1,.15.68,9.25,9.25,0,0,1-.37,2.16C22,61.88,22.33,60.92,22.73,59.92Z"/><path class="cls-1" d="M25.47,66.19a5.25,5.25,0,0,1-1.13,1.39,1.64,1.64,0,0,1-1.22.5.43.43,0,0,1-.37-.25,1.28,1.28,0,0,1-.12-.6,4.3,4.3,0,0,1,.29-1.48.47.47,0,0,1-.12-.32,1,1,0,0,1,.23-.59,2.84,2.84,0,0,1,.6-.6,3.72,3.72,0,0,1,.49-.63l.11.1-.31.32a2.76,2.76,0,0,1,1.38-.47c.51,0,.76.27.76.83a3.58,3.58,0,0,1-.53,1.67,10.81,10.81,0,0,0,3-.65l0,.13A11.13,11.13,0,0,1,25.47,66.19Zm-1.24,1.3a5.63,5.63,0,0,0,1.07-1.3l-.58,0A2.89,2.89,0,0,1,23,65.83a4.82,4.82,0,0,0-.25,1.38c0,.45.12.7.37.73A1.42,1.42,0,0,0,24.23,67.49ZM23,65.58a6,6,0,0,1,.46-1,1.2,1.2,0,0,0-.5.82A.41.41,0,0,0,23,65.58Zm1.54-1.69a4.59,4.59,0,0,0-.83.48,7.27,7.27,0,0,0-.63,1.33,1.56,1.56,0,0,0,.67.29,5.29,5.29,0,0,0,1.12.1l.52,0a3.58,3.58,0,0,0,.56-1.68c0-.47-.2-.7-.61-.7A2.08,2.08,0,0,0,24.51,63.89Z"/><path class="cls-1" d="M32.89,67.57v.32a4.18,4.18,0,0,1-.62,2,5.75,5.75,0,0,1-1.37,1.55,2.5,2.5,0,0,1-1.42.59A.81.81,0,0,1,29.1,72a.33.33,0,0,1-.22-.32c0-.36.38-.93,1.13-1.71a28.09,28.09,0,0,1,2.75-2.42,2.15,2.15,0,0,0-.15-.65,4.64,4.64,0,0,0-.4-.69c-.13-.21-.23-.38-.3-.52a1.07,1.07,0,0,1-.1-.49,1.45,1.45,0,0,1,.15-.63l-.83.57-.31.23a4,4,0,0,1-.08.41l-.14,0c0-.06,0-.14.07-.26-.2.14-.39.29-.6.45-.65.51-1.15.88-1.49,1.11a1.66,1.66,0,0,1-.77.35c-.12,0-.18-.06-.18-.19a1.92,1.92,0,0,1,.41-.92,7.49,7.49,0,0,1,1-1.15,2.54,2.54,0,0,1,1-.65,1,1,0,0,1,.27,0,.46.46,0,0,1,.42.2.91.91,0,0,1,.14.54l.24-.17.41-.27.63-.41a2.1,2.1,0,0,1,.52-.51,1.08,1.08,0,0,1,.48-.2c.09,0,.12,0,.08.15a3.76,3.76,0,0,1-.57.38l-.43.27a1.44,1.44,0,0,0-.24.76,1,1,0,0,0,.1.45,3.38,3.38,0,0,0,.28.49,3.81,3.81,0,0,1,.36.6,2.37,2.37,0,0,1,.2.71,21.46,21.46,0,0,1,2.94-2l.07.13A19.84,19.84,0,0,0,32.89,67.57Zm-2.21-2.31a.88.88,0,0,0-.07-.53.37.37,0,0,0-.35-.21.74.74,0,0,0-.27.06,3,3,0,0,0-1.09.8A7,7,0,0,0,28,66.59c-.23.39-.27.59-.13.59a1.75,1.75,0,0,0,.73-.36c.35-.24.82-.58,1.41-1Zm2.08,2.41A29.11,29.11,0,0,0,30.14,70c-.72.76-1.09,1.29-1.09,1.59a.21.21,0,0,0,.12.21.81.81,0,0,0,.33.07,2.33,2.33,0,0,0,1.31-.58,5.45,5.45,0,0,0,1.33-1.51,4,4,0,0,0,.62-1.91Zm-.32-3.57.57-.37A1.16,1.16,0,0,0,32.44,64.1Z"/><path class="cls-1" d="M39.13,64.18a1.59,1.59,0,0,1-.39-.23,2.92,2.92,0,0,0-.42-.22.86.86,0,0,0-.46,0c-.42.06-.79.41-1.1,1.06a9.29,9.29,0,0,0-.69,2,4.44,4.44,0,0,1-.25.81c-.08.17-.18.23-.31.17a.19.19,0,0,1-.08-.17,4.68,4.68,0,0,1,.13-.69,3.64,3.64,0,0,0,.12-.43,4.2,4.2,0,0,1,.16-.51c.17-.6.29-1.07.37-1.43a4.57,4.57,0,0,0,.12-1,2.11,2.11,0,0,0,0-.3h.14a2.45,2.45,0,0,1,0,.3,5.07,5.07,0,0,1-.13,1.12c-.09.4-.22.87-.37,1.4l-.14.48-.09.29-.06.29a3.78,3.78,0,0,0-.11.4c0,.09,0,.14.06.14s.19-.3.34-.88c.48-2,1.11-3,1.87-3.13l.23,0a.82.82,0,0,1,.37.07l.38.2a2.49,2.49,0,0,0,.4.23,1,1,0,0,0,.43.06v.1A1.53,1.53,0,0,1,39.13,64.18Z"/><path class="cls-1" d="M47,65.53a9.62,9.62,0,0,1-1.29.58,4,4,0,0,1-1.45.35.77.77,0,0,1-.76-.38A2.25,2.25,0,0,1,43.26,65a5.32,5.32,0,0,0,0-.7.17.17,0,0,0-.18-.15,1.27,1.27,0,0,0-.64.36l.11.22-.1.07a1.79,1.79,0,0,1-.12-.21c-.28.23-.74.66-1.37,1.3l-.68.66a4.75,4.75,0,0,1-.65.53.93.93,0,0,1-.49.18.28.28,0,0,1-.31-.32,2.5,2.5,0,0,1,.48-1.2,5.79,5.79,0,0,1,1.19-1.33,2.05,2.05,0,0,1,1.29-.58.43.43,0,0,1,.35.13,1.6,1.6,0,0,1,.23.41c.38-.29.67-.41.85-.34a.31.31,0,0,1,.18.15,1,1,0,0,1,0,.29,9.17,9.17,0,0,0,0,1,1.29,1.29,0,0,0,.21.59.67.67,0,0,0,.56.23A4.32,4.32,0,0,0,45.64,66a10.48,10.48,0,0,0,1.26-.57ZM40.56,66a22.91,22.91,0,0,1,1.68-1.6,1.46,1.46,0,0,0-.19-.36.34.34,0,0,0-.28-.12,1.93,1.93,0,0,0-1.23.57,6,6,0,0,0-1.1,1.3A2.33,2.33,0,0,0,39,66.91a.21.21,0,0,0,.07.17A.54.54,0,0,0,39.5,67a3.07,3.07,0,0,0,.65-.52Z"/><path class="cls-1" d="M51.85,66a15.73,15.73,0,0,1-2.11.12,2.89,2.89,0,0,1-1.48.58,1.25,1.25,0,0,1-.49-.12c-.15-.08-.22-.16-.22-.24s.15-.19.46-.26A9.17,9.17,0,0,1,49.5,66h.21a6.35,6.35,0,0,0,1.53-1.49,2.71,2.71,0,0,0,.66-1.49.58.58,0,0,0-.2-.46.92.92,0,0,0-.62-.18,3,3,0,0,0-2.22,1.43,14.87,14.87,0,0,0-1.94,3.29,39.09,39.09,0,0,1-1,3.8c-.32,1-.6,1.44-.84,1.3,0,0-.07-.1-.07-.2a4.32,4.32,0,0,1,.3-1.21c.2-.56.53-1.45,1-2.67.07-.2.12-.35.17-.46l.2-.51c.21-1,.38-1.89.52-2.72a12.53,12.53,0,0,0,.21-1.61h.14a10.84,10.84,0,0,1-.16,1.35c-.11.69-.24,1.47-.4,2.34a14.29,14.29,0,0,1,1.91-3,2.92,2.92,0,0,1,2.12-1.26,1.76,1.76,0,0,1,.27,0,.71.71,0,0,1,.68.75,2.7,2.7,0,0,1-.63,1.49A6.79,6.79,0,0,1,49.91,66a13.75,13.75,0,0,0,2-.12,2.83,2.83,0,0,0,1.32-.49l.06.1A3,3,0,0,1,51.85,66ZM45.79,71c.24-.77.5-1.77.77-3-.52,1.33-.9,2.34-1.14,3s-.32,1-.22,1.08S45.55,71.77,45.79,71Zm2.47-4.37a2.66,2.66,0,0,0,1.28-.46h-.07a8.4,8.4,0,0,0-1.44.07c-.2,0-.29.1-.29.17s0,.09.17.15A1,1,0,0,0,48.26,66.62Z"/><path class="cls-1" d="M58.56,66.28a3,3,0,0,1-1.25.34,1,1,0,0,1-.36-.06c-.25-.09-.37-.35-.37-.78a10.63,10.63,0,0,1,.15-1.24,7.91,7.91,0,0,0,.12-1.17c0-.19,0-.29-.12-.29s-.32.21-.61.62-.73,1.09-1.31,2-1,1.59-1.33,2.08-.6.77-.8.81-.25,0-.25-.25a6.79,6.79,0,0,1,.48-1.8c.33-.89.92-2.44,1.8-4.66.56-1.44,1-2.54,1.25-3.31a3.52,3.52,0,0,0,.34-1.15s-.09.1-.17.3-.14.32-.17.37l-.1-.07a5.67,5.67,0,0,1,.31-.62c.07-.11.14-.15.22-.11s0,0,0,.12a5.56,5.56,0,0,1-.35,1.25c-.23.65-.65,1.74-1.25,3.27q-2.23,5.62-2.24,6.37c0,.11,0,.15.08.12.28-.1.94-1,2-2.79.52-.86,1-1.53,1.32-2s.62-.74.79-.74.18.17.18.51a5.71,5.71,0,0,1-.13,1.16,10,10,0,0,0-.14,1.21q0,.54.27.66a1.27,1.27,0,0,0,.34,0,3.07,3.07,0,0,0,1.2-.32,10.43,10.43,0,0,0,1.32-.73l.07.1A9.76,9.76,0,0,1,58.56,66.28Z"/><path class="cls-1" d="M63.78,68.25c0,.2,0,.37-.06.49a3.23,3.23,0,0,1-.83,1.62,5.53,5.53,0,0,1-1.44,1.17,2.44,2.44,0,0,1-1.19.39q-.3,0-.3-.24c0-.27.34-.72,1-1.36a30.78,30.78,0,0,1,2.63-2.11,6.11,6.11,0,0,0,0-.84c0-.3-.08-.58-.12-.86a8.44,8.44,0,0,1-.14-1.13,2.83,2.83,0,0,1,.09-.68,12.42,12.42,0,0,1-1.59,1,3,3,0,0,1-1.35.42H60.3c-.23,0-.34-.22-.34-.51a2.39,2.39,0,0,1,.22-.91,3.89,3.89,0,0,1,.44-.83l.1.07a3.8,3.8,0,0,0-.4.81,2.36,2.36,0,0,0-.21.86c0,.21.08.34.22.37l.19,0a2.9,2.9,0,0,0,1.35-.47,15.07,15.07,0,0,0,1.63-1.1,2,2,0,0,1,.45-.64.88.88,0,0,1,.5-.29.08.08,0,0,1,.07.05.24.24,0,0,1,0,.15,2.83,2.83,0,0,1-.31.31c-.17.15-.37.31-.61.49l0,.12a2.2,2.2,0,0,0-.1.68,8.08,8.08,0,0,0,.13,1.16c0,.25.09.51.13.8a4.42,4.42,0,0,1,0,.8c.79-.57,1.57-1.1,2.35-1.59s1.42-.85,1.92-1.1l.07.13A28.57,28.57,0,0,0,63.78,68.25Zm-.15.12a28.05,28.05,0,0,0-2.5,2c-.67.62-1,1-1,1.25a.12.12,0,0,0,0,.11.32.32,0,0,0,.16,0,2.45,2.45,0,0,0,1.15-.41,5.15,5.15,0,0,0,1.33-1.12,3.21,3.21,0,0,0,.77-1.54Zm.66-4.63A2,2,0,0,0,64,64a1.69,1.69,0,0,0-.27.32,5.06,5.06,0,0,0,.44-.36l.21-.2S64.37,63.7,64.29,63.74Z"/><path class="cls-1" d="M80.61,65.19c-.29,0-.73,0-1.31,0l-1.68,0h-.08l0,.13a23,23,0,0,0-.32,3H77a21.24,21.24,0,0,1,.33-3v-.14l-1.41,0a13.92,13.92,0,0,0-1.56.08v-.13A11.51,11.51,0,0,1,76,65c.31,0,.79,0,1.45,0a18.47,18.47,0,0,0,.25-2.93l.16,0a18.35,18.35,0,0,1-.26,2.92h.05c.73,0,1.29,0,1.68,0,.57,0,1,0,1.3,0Z"/><path class="cls-1" d="M89.79,72.14a2.13,2.13,0,0,0,.16-.28,1.22,1.22,0,0,0,.1-.33l.13,0a2.11,2.11,0,0,1-.25.62c-.1.15-.19.23-.26.23s0,0-.06-.06a.29.29,0,0,1,0-.19,32.57,32.57,0,0,1,.7-4.55c.39-1.89.84-3.68,1.32-5.38-.3.57-.63,1.13-1,1.68a4.1,4.1,0,0,1,0,.43c0,.16,0,.37,0,.64h-.14c0-.22,0-.52,0-.88a19.41,19.41,0,0,1-1.84,2.59c-.57.67-1,1-1.39,1s-.39-.17-.39-.5a4,4,0,0,1,.52-1.59,8.77,8.77,0,0,1,1.22-1.82,2.22,2.22,0,0,1,1.22-.87.51.51,0,0,1,.51.17,1.09,1.09,0,0,1,.24.61q.54-.87,1.17-2c.32-1,.61-1.85.86-2.46s.46-.92.6-.92.12.06.16.17a3.65,3.65,0,0,1-.39,1c-.27.62-.63,1.35-1.08,2.17q-.78,2.55-1.42,5.49a36.24,36.24,0,0,0-.79,5S89.75,72.21,89.79,72.14Zm-1.2-5.55a24.5,24.5,0,0,0,1.92-2.73,1.78,1.78,0,0,0-.18-.61.39.39,0,0,0-.35-.2c-.34,0-.74.26-1.2.79a8.79,8.79,0,0,0-1.21,1.81A3.69,3.69,0,0,0,87,67.19c0,.21.07.32.2.34C87.56,67.59,88,67.28,88.59,66.59ZM92.86,59a18.07,18.07,0,0,0-.72,2c.35-.68.63-1.26.84-1.73a2.45,2.45,0,0,0,.28-.79C93.2,58.33,93.07,58.49,92.86,59Z"/><path class="cls-1" d="M98.48,65.53a5.27,5.27,0,0,1-1.4,1.12,9.7,9.7,0,0,1-2,.88,5.81,5.81,0,0,1-1.82.34,1.31,1.31,0,0,1-1.12-.4A.77.77,0,0,1,92,67a1.56,1.56,0,0,1,.18-.66,3.5,3.5,0,0,1,.48-.75l-.29-.07,0-.13.34.08a4.49,4.49,0,0,1,.95-.81,1.72,1.72,0,0,1,.92-.33c.36,0,.54.12.54.35a.63.63,0,0,1-.24.43,1.92,1.92,0,0,1-.65.38,2.83,2.83,0,0,1-1,.15,3.45,3.45,0,0,1-.52,0,3.17,3.17,0,0,0-.48.71,1.62,1.62,0,0,0-.17.67.63.63,0,0,0,.09.35c.14.25.48.38,1,.38A5.92,5.92,0,0,0,95,67.42a10.72,10.72,0,0,0,1.93-.86,5.68,5.68,0,0,0,1.44-1.13Zm-3.82-1.06a1.72,1.72,0,0,0-.85.29,4.33,4.33,0,0,0-.87.75l.46,0a2.63,2.63,0,0,0,.86-.13,1.72,1.72,0,0,0,.59-.33.53.53,0,0,0,.21-.37c0-.08,0-.13-.08-.15A.57.57,0,0,0,94.66,64.47Z"/><path class="cls-1" d="M102.64,66.4a3.7,3.7,0,0,1-1,1.18,6.78,6.78,0,0,1-1.5,1,3,3,0,0,1-1.24.39c-.25,0-.38-.08-.38-.24s.4-.6,1.21-1.07a18.31,18.31,0,0,1,2.8-1.33,1.54,1.54,0,0,0,.1-.53c0-.44-.28-.66-.86-.66a7.35,7.35,0,0,0-1.69.31,6,6,0,0,1-1.17.22c-.27,0-.41-.1-.41-.29a2,2,0,0,1,.57-1.13A7.33,7.33,0,0,1,100.34,63a2.08,2.08,0,0,1,1-.55c.13,0,.2.08.2.24a.79.79,0,0,1-.12.37c-.08.15-.2.34-.35.58a6.88,6.88,0,0,0-.43.74.81.81,0,0,0-.1.47l-.14,0a.81.81,0,0,1,.1-.53c.11-.2.26-.46.46-.78a2.22,2.22,0,0,0,.45-.88.11.11,0,0,0-.12-.12,2,2,0,0,0-.89.48,6.94,6.94,0,0,0-1.16,1.14,2.5,2.5,0,0,0-.62,1.1c0,.16.06.24.29.24a5.55,5.55,0,0,0,1.17-.24l.67-.17a4.5,4.5,0,0,1,1-.14c.59,0,.91.24,1,.7v.1a1.65,1.65,0,0,1-.08.46,17.59,17.59,0,0,1,2.77-.83l0,.13A14.52,14.52,0,0,0,102.64,66.4ZM100,68.48a8,8,0,0,0,1.44-.9,3.9,3.9,0,0,0,1-1.12,19.89,19.89,0,0,0-2.65,1.29q-1.14.69-1.14,1t.24.12A3,3,0,0,0,100,68.48Z"/><path class="cls-1" d="M111.11,65.53a9.09,9.09,0,0,1-1.29,1.12,8.7,8.7,0,0,1-1.76,1,4.35,4.35,0,0,1-1.76.41,1.31,1.31,0,0,1-.87-.25,1,1,0,0,1-.29-.75,4.3,4.3,0,0,1,.72-2l.15,0a4.24,4.24,0,0,0-.68,2c0,.58.31.87.94.87a4.49,4.49,0,0,0,1.72-.4,9.31,9.31,0,0,0,1.74-1A8.87,8.87,0,0,0,111,65.43ZM106.3,63.2l.14-.09.06-.11a.37.37,0,0,1,.07-.12l.14,0,0,.09a1,1,0,0,1,.58-.16.14.14,0,0,1,.08.14c0,.12-.11.27-.31.44a.94.94,0,0,1-.54.26.14.14,0,0,1-.15-.16.52.52,0,0,1,.05-.24Zm.24,0c-.09.2-.12.32-.09.34s.16,0,.32-.12a1.92,1.92,0,0,0,.36-.31c.08-.11.07-.17,0-.17A1.11,1.11,0,0,0,106.54,63.2Z"/><path class="cls-1" d="M115.41,67.57v.32a4.09,4.09,0,0,1-.63,2,5.56,5.56,0,0,1-1.36,1.55A2.53,2.53,0,0,1,112,72a.81.81,0,0,1-.38-.07.32.32,0,0,1-.22-.32c0-.36.38-.93,1.13-1.71a27,27,0,0,1,2.75-2.42,2.13,2.13,0,0,0-.16-.65,5.45,5.45,0,0,0-.39-.69,4.62,4.62,0,0,1-.3-.52,1.07,1.07,0,0,1-.11-.49,1.47,1.47,0,0,1,.16-.63l-.84.57-.3.23a2.62,2.62,0,0,1-.09.41l-.13,0c0-.06,0-.14.07-.26q-.3.21-.6.45-1,.77-1.5,1.11a1.64,1.64,0,0,1-.76.35.17.17,0,0,1-.19-.19,2,2,0,0,1,.42-.92,7.49,7.49,0,0,1,1-1.15,2.59,2.59,0,0,1,1-.65,1,1,0,0,1,.28,0,.46.46,0,0,1,.42.2,1,1,0,0,1,.14.54l.24-.17.4-.27.63-.41a2.33,2.33,0,0,1,.53-.51,1,1,0,0,1,.48-.2c.09,0,.12,0,.08.15a3.6,3.6,0,0,1-.58.38l-.42.27a1.44,1.44,0,0,0-.24.76,1.13,1.13,0,0,0,.09.45c.07.13.16.3.28.49a3.9,3.9,0,0,1,.37.6,2.37,2.37,0,0,1,.2.71,21.46,21.46,0,0,1,2.94-2l.06.13A20.34,20.34,0,0,0,115.41,67.57Zm-2.21-2.31a1,1,0,0,0-.07-.53.37.37,0,0,0-.35-.21.83.83,0,0,0-.28.06,3,3,0,0,0-1.08.8,7,7,0,0,0-.92,1.21c-.23.39-.27.59-.14.59a1.7,1.7,0,0,0,.73-.36c.36-.24.83-.58,1.41-1Zm2.08,2.41A27.8,27.8,0,0,0,112.66,70c-.73.76-1.09,1.29-1.09,1.59a.21.21,0,0,0,.12.21.79.79,0,0,0,.32.07,2.33,2.33,0,0,0,1.32-.58,5.61,5.61,0,0,0,1.33-1.51,4,4,0,0,0,.62-1.91ZM115,64.1l.58-.37A1.23,1.23,0,0,0,115,64.1Z"/><path class="cls-1" d="M126.33,66.17a9.22,9.22,0,0,1-1.56.62,5.46,5.46,0,0,1-1.54.25,1.92,1.92,0,0,1-.73-.12.77.77,0,0,1-.48-.81,2.53,2.53,0,0,1,.09-.64c.06-.23.09-.37.1-.42a4.16,4.16,0,0,0,.16-.83.28.28,0,0,0,0-.16s-.06,0-.12,0a1.67,1.67,0,0,0-1.09.67,18.92,18.92,0,0,0-1.34,1.77,13.54,13.54,0,0,1-.87,1.19c-.23.26-.42.39-.59.39a.23.23,0,0,1-.15-.05c-.12-.06-.17-.23-.17-.49a6.64,6.64,0,0,1,.35-1.7c.24-.76.6-1.74,1.09-3l.14,0a17.88,17.88,0,0,0-1.45,4.62c0,.2,0,.33.12.37s.25,0,.44-.2a10.69,10.69,0,0,0,1-1.29,17.19,17.19,0,0,1,1.4-1.84,1.67,1.67,0,0,1,1.17-.66c.19,0,.29.11.29.32a4.54,4.54,0,0,1-.17.87,4,4,0,0,0-.19,1.05.66.66,0,0,0,.38.67,1.58,1.58,0,0,0,.67.12,5.38,5.38,0,0,0,1.52-.26,9,9,0,0,0,1.54-.61,2.77,2.77,0,0,0,.89-.61l.1.1A3.32,3.32,0,0,1,126.33,66.17Z"/></g></g></svg>