<svg xmlns="http://www.w3.org/2000/svg" viewBox="0 0 81.74 79.23"><defs><style>.cls-1{fill:#fff;}</style></defs><g id="Layer_2" data-name="Layer 2"><g id="Layer_1-2" data-name="Layer 1"><path class="cls-1" d="M27.27,19.62l.5-.38.69-.53c.24-.18.47-.35.67-.52s.35-.27.42-.31a0,0,0,0,1,0,0h.09s0,0,0,0V29.06a2.86,2.86,0,0,0,0,.56,1.66,1.66,0,0,0,.26.52,2.37,2.37,0,0,0,.37.34.9.9,0,0,0,.44.18v0l0,0H27.44a0,0,0,0,1,0,0v0s0,0,0,0a.74.74,0,0,0,.39-.14,1.5,1.5,0,0,0,.39-.37,1.33,1.33,0,0,0,.26-.5,4.17,4.17,0,0,0,0-.56V20.64a2.33,2.33,0,0,0-.12-.82A.42.42,0,0,0,28,19.5a1.21,1.21,0,0,0-.62.2,0,0,0,0,1,0,0l0,0S27.26,19.64,27.27,19.62Z"/><path class="cls-1" d="M32,23.56l.49-.38.69-.53c.25-.18.47-.36.68-.52s.34-.27.42-.32h.12s0,0,0,0v7.23a2.18,2.18,0,0,0,.05.56,1.46,1.46,0,0,0,.26.52,2.31,2.31,0,0,0,.36.34.94.94,0,0,0,.44.18v0l0,0H32.19s0,0,0,0v0a0,0,0,0,1,0,0,.74.74,0,0,0,.39-.14,1.33,1.33,0,0,0,.38-.37,1.13,1.13,0,0,0,.27-.5,3.94,3.94,0,0,0,0-.56V24.6a2.41,2.41,0,0,0-.12-.84.44.44,0,0,0-.45-.31,1.31,1.31,0,0,0-.62.2s0,0,0,0l0,0S32,23.57,32,23.56Zm1.09-3.88a.74.74,0,0,1,.21-.53.67.67,0,0,1,.52-.22.71.71,0,0,1,.53.22.75.75,0,0,1,.22.53.71.71,0,0,1-.22.52.74.74,0,0,1-.53.21.72.72,0,0,1-.73-.73Z"/><path class="cls-1" d="M36.78,23.5l.49-.38.7-.53.67-.52c.21-.16.35-.27.42-.31s0,0,0,0h.09s0,0,0,0v2a8.18,8.18,0,0,1,.61-.55,6.43,6.43,0,0,1,.71-.49,3.93,3.93,0,0,1,.78-.36,2.48,2.48,0,0,1,.8-.13,3.69,3.69,0,0,1,2.3.65,2.55,2.55,0,0,1,.85,2.15v4a2.75,2.75,0,0,0,0,.56,1.66,1.66,0,0,0,.26.52,2,2,0,0,0,.37.34.9.9,0,0,0,.43.18v.08H43a0,0,0,0,1,0,0v0s0,0,0,0a.74.74,0,0,0,.39-.14,1.5,1.5,0,0,0,.39-.37,1.28,1.28,0,0,0,.25-.5,2.86,2.86,0,0,0,0-.56V25a3,3,0,0,0-.54-1.86,1.68,1.68,0,0,0-1.41-.72,2.26,2.26,0,0,0-.8.15,5.21,5.21,0,0,0-1.49.91l-.61.54v5a2.75,2.75,0,0,0,.05.56,1.66,1.66,0,0,0,.26.52,2,2,0,0,0,.37.34.9.9,0,0,0,.44.18v0s0,0,0,0H37a0,0,0,0,1,0,0v0s0,0,0,0a.74.74,0,0,0,.39-.14,1.5,1.5,0,0,0,.39-.37,1.33,1.33,0,0,0,.26-.5,4.17,4.17,0,0,0,0-.56V24.52a2.33,2.33,0,0,0-.12-.82.43.43,0,0,0-.44-.32,1.18,1.18,0,0,0-.62.2,0,0,0,0,1,0,0l0,0S36.77,23.52,36.78,23.5Z"/><path class="cls-1" d="M47.59,19.62l.49-.38.69-.53c.24-.18.47-.35.67-.52s.35-.27.42-.31a0,0,0,0,1,0,0H50s0,0,0,0v5.83a7.15,7.15,0,0,1,.56-.52,3.93,3.93,0,0,1,.68-.47,5,5,0,0,1,.79-.33,3,3,0,0,1,.86-.12,3.67,3.67,0,0,1,2.3.65,2.55,2.55,0,0,1,.85,2.15v4a2.75,2.75,0,0,0,0,.56,1.66,1.66,0,0,0,.26.52,2.37,2.37,0,0,0,.37.34.9.9,0,0,0,.44.18v0l0,0H53.8a0,0,0,0,1,0,0v0s0,0,0,0a.74.74,0,0,0,.39-.14,1.3,1.3,0,0,0,.37-.37,1.29,1.29,0,0,0,.28-.5,4.17,4.17,0,0,0,0-.56V25a3,3,0,0,0-.54-1.86,1.68,1.68,0,0,0-1.43-.72,2.82,2.82,0,0,0-.87.13,4,4,0,0,0-.78.36,4.28,4.28,0,0,0-.67.49c-.2.18-.38.37-.55.55v5.08a2.86,2.86,0,0,0,0,.56,1.52,1.52,0,0,0,.27.52,2.31,2.31,0,0,0,.36.34.9.9,0,0,0,.44.18v0s0,0,0,0H47.75a0,0,0,0,1,0,0v0s0,0,0,0a.74.74,0,0,0,.39-.14,1.5,1.5,0,0,0,.39-.37,1.33,1.33,0,0,0,.26-.5,4.17,4.17,0,0,0,0-.56V20.64a2.62,2.62,0,0,0-.11-.82.44.44,0,0,0-.45-.32,1.21,1.21,0,0,0-.62.2s0,0,0,0v0S47.57,19.64,47.59,19.62Z"/><path class="cls-1" d="M17,34.72l.5-.38c.21-.17.44-.35.69-.53l.67-.52.42-.32,0,0h.09s0,0,0,0V38.8c.17-.17.36-.34.57-.52a4.05,4.05,0,0,1,.68-.46,3.66,3.66,0,0,1,.79-.33,2.71,2.71,0,0,1,.86-.13,3.68,3.68,0,0,1,2.3.66,2.54,2.54,0,0,1,.85,2.15v4a2.64,2.64,0,0,0,.05.55,1.56,1.56,0,0,0,.26.52,1.75,1.75,0,0,0,.37.35.9.9,0,0,0,.43.18v.07H23.19s0,0,0,0v0a0,0,0,0,1,0,0,.72.72,0,0,0,.39-.13,1.34,1.34,0,0,0,.37-.38,1.08,1.08,0,0,0,.27-.5,2.75,2.75,0,0,0,0-.55v-4a3,3,0,0,0-.54-1.87,1.69,1.69,0,0,0-1.43-.72,2.83,2.83,0,0,0-.87.14,3.76,3.76,0,0,0-.79.36,4,4,0,0,0-.66.49c-.2.18-.39.36-.56.54v5.09a2.64,2.64,0,0,0,.05.55,1.56,1.56,0,0,0,.26.52,1.75,1.75,0,0,0,.37.35.9.9,0,0,0,.44.18v0s0,0,0,0H17.14s0,0,0,0v0a0,0,0,0,1,0,0,.72.72,0,0,0,.39-.13,1.55,1.55,0,0,0,.39-.38,1.26,1.26,0,0,0,.26-.5,4,4,0,0,0,0-.55V35.74a2.39,2.39,0,0,0-.12-.83.44.44,0,0,0-.44-.32,1.31,1.31,0,0,0-.62.2,0,0,0,0,1,0,0l0,0A0,0,0,0,1,17,34.72Z"/><path class="cls-1" d="M27,41.68A4.06,4.06,0,0,1,27.37,40a4.61,4.61,0,0,1,.94-1.35,4.38,4.38,0,0,1,1.39-.92,4.42,4.42,0,0,1,3.4,0,4.38,4.38,0,0,1,1.39.92A4.43,4.43,0,0,1,35.43,40a4.06,4.06,0,0,1,.34,1.67,4.11,4.11,0,0,1-.34,1.66A4.34,4.34,0,0,1,33.1,45.6a4.42,4.42,0,0,1-3.4,0,4.35,4.35,0,0,1-1.39-.91,4.48,4.48,0,0,1-.94-1.35A4.11,4.11,0,0,1,27,41.68Zm1.6,1.58A5.11,5.11,0,0,0,30.23,45a3.53,3.53,0,0,0,1.94.62,2.6,2.6,0,0,0,2.21-1.25,3.4,3.4,0,0,0,.43-1.28,4.34,4.34,0,0,0-.07-1.47,4.75,4.75,0,0,0-.59-1.52,4.86,4.86,0,0,0-1.59-1.71,3.61,3.61,0,0,0-1.92-.61,2.86,2.86,0,0,0-.67.08,2.07,2.07,0,0,0-.63.25,2.61,2.61,0,0,0-.91.9A3.48,3.48,0,0,0,28,40.27a4.33,4.33,0,0,0,.07,1.47A4.94,4.94,0,0,0,28.63,43.26Z"/><path class="cls-1" d="M37,43.76a2,2,0,0,1,.27-1.06,2.59,2.59,0,0,1,.69-.79,4,4,0,0,1,1-.57,9.25,9.25,0,0,1,1-.38q.51-.15,1-.24l.72-.12V39A1.39,1.39,0,0,0,40,37.4a1.26,1.26,0,0,0-.69.16A1.21,1.21,0,0,0,39,38a3.05,3.05,0,0,0-.2.53c0,.19-.1.36-.14.53a1.22,1.22,0,0,1-.21.41.51.51,0,0,1-.41.16.44.44,0,0,1-.39-.21.9.9,0,0,1-.12-.46,1.21,1.21,0,0,1,.21-.68,1.93,1.93,0,0,1,.56-.54,3,3,0,0,1,.81-.37,3.69,3.69,0,0,1,1-.12,4.3,4.3,0,0,1,1.34.18,1.93,1.93,0,0,1,1.31,1.42A5,5,0,0,1,42.8,40v4.41a.84.84,0,0,0,.14.53.58.58,0,0,0,.47.16.6.6,0,0,0,.35-.1,2,2,0,0,0,.27-.22,1.44,1.44,0,0,0,.21-.34s.09,0,.13,0,.07.06,0,.12l-.25.43a2.24,2.24,0,0,1-.33.43,1.64,1.64,0,0,1-.44.33,1.4,1.4,0,0,1-.6.13,1.29,1.29,0,0,1-.55-.1.93.93,0,0,1-.36-.25,1,1,0,0,1-.19-.38,3.4,3.4,0,0,1-.07-.46,3.57,3.57,0,0,1-1.13.76,3.93,3.93,0,0,1-1.31.32,3.25,3.25,0,0,1-.54,0,2.15,2.15,0,0,1-.5-.12,1.73,1.73,0,0,1-.83-.66A2.16,2.16,0,0,1,37,43.76Zm4.61.72c0-.13,0-.26,0-.4s0-.26,0-.38V40.81l-.55.08a6.86,6.86,0,0,0-.69.13,3.85,3.85,0,0,0-1.38.62,2.32,2.32,0,0,0-.73.89,1.87,1.87,0,0,0-.17,1,2.2,2.2,0,0,0,.27.9,1.92,1.92,0,0,0,.63.67,1.6,1.6,0,0,0,.89.26,1.92,1.92,0,0,0,.94-.25A2.63,2.63,0,0,0,41.6,44.48Z"/><path class="cls-1" d="M45.28,38.6l.49-.38.7-.53.67-.52.42-.32a.05.05,0,0,1,0,0h.09s0,0,0,0v2c.19-.18.39-.36.61-.54a5.69,5.69,0,0,1,.71-.5,4.54,4.54,0,0,1,.78-.35,2.45,2.45,0,0,1,.8-.14,3.64,3.64,0,0,1,2.29.66,2.51,2.51,0,0,1,.86,2.15v4a2.64,2.64,0,0,0,0,.55,1.39,1.39,0,0,0,.26.52,2,2,0,0,0,.36.35.94.94,0,0,0,.44.18v0l0,0H51.49a0,0,0,0,1,0,0v0s0,0,0,0a.73.73,0,0,0,.4-.13,1.74,1.74,0,0,0,.39-.38,1.22,1.22,0,0,0,.25-.5,2.75,2.75,0,0,0,0-.55v-4A3,3,0,0,0,52,38.26a1.68,1.68,0,0,0-1.41-.72,2.24,2.24,0,0,0-.8.16,4.45,4.45,0,0,0-.79.39,6.16,6.16,0,0,0-.71.52l-.6.54v5a2.64,2.64,0,0,0,.05.55,1.56,1.56,0,0,0,.26.52,1.75,1.75,0,0,0,.37.35.9.9,0,0,0,.43.18v0s0,0,0,0H45.45s0,0,0,0v0a0,0,0,0,1,0,0,.72.72,0,0,0,.39-.13,1.55,1.55,0,0,0,.39-.38,1.22,1.22,0,0,0,.25-.5,2.75,2.75,0,0,0,0-.55V39.62a2.39,2.39,0,0,0-.12-.83.45.45,0,0,0-.44-.32,1.28,1.28,0,0,0-.62.2s0,0,0,0l0,0A0,0,0,0,1,45.28,38.6Z"/><path class="cls-1" d="M59.13,48.35a1,1,0,0,0,.64-.17,1,1,0,0,0,.31-.39,3.39,3.39,0,0,0,.17-.48.91.91,0,0,1,.24-.44,1.28,1.28,0,0,1,.22-.17.53.53,0,0,1,.31-.08q.27,0,.27.3a1.16,1.16,0,0,1-.24.65,2.42,2.42,0,0,1-.74.66,2.23,2.23,0,0,1-1.18.3,3.32,3.32,0,0,1-1.13-.2,3.22,3.22,0,0,1-1-.58,3,3,0,0,1-.69-.88,2.38,2.38,0,0,1-.26-1.13,1.72,1.72,0,0,1,.18-.78,2.3,2.3,0,0,1,.47-.64,2.41,2.41,0,0,1,.68-.44,1.89,1.89,0,0,1,.76-.16,2,2,0,0,1,1,.23,4.94,4.94,0,0,1,.75.51,8.58,8.58,0,0,0,.71.52,1.65,1.65,0,0,0,.88.23,2.25,2.25,0,0,0,1-.23,1.52,1.52,0,0,0,.6-.53,1.07,1.07,0,0,0,.11-.46.8.8,0,0,0-.09-.42,1,1,0,0,0-.4-.41A1.51,1.51,0,0,0,62,43a3,3,0,0,0-.71.09,3.26,3.26,0,0,1-1.25.26,3.18,3.18,0,0,1-2.91-1.87,3.1,3.1,0,0,1,0-2.39,3.15,3.15,0,0,1,.68-1,3.2,3.2,0,0,1,3.44-.66,3.27,3.27,0,0,1,1,.66,2.55,2.55,0,0,1,.23-.93,2.16,2.16,0,0,1,.5-.72,2.21,2.21,0,0,1,.7-.47,2,2,0,0,1,.79-.16,2.2,2.2,0,0,1,.44,0,.75.75,0,0,1,.28.18.66.66,0,0,1,.17.25.48.48,0,0,1,0,.29.57.57,0,0,1-.24.25.67.67,0,0,1-.38.09,2.62,2.62,0,0,1-.54-.06,1.67,1.67,0,0,0-.59,0,2.41,2.41,0,0,0-.61.18,1,1,0,0,0-.52.62,2.61,2.61,0,0,0-.06.27c0,.1,0,.21,0,.31v0a3.25,3.25,0,0,1,.56.92,3,3,0,0,1,.2,1.08,2.88,2.88,0,0,1-.37,1.46,3.17,3.17,0,0,1-1,1.08H62a1.58,1.58,0,0,1,.82.19,1.24,1.24,0,0,1,.46.48,1.52,1.52,0,0,1,.15,1,2,2,0,0,1-.43.91,2.56,2.56,0,0,1-.85.67,2.37,2.37,0,0,1-1.07.25,1.72,1.72,0,0,1-.91-.26c-.27-.18-.54-.37-.82-.58a7.27,7.27,0,0,0-.86-.59,2.11,2.11,0,0,0-1-.26,1,1,0,0,0-.76.27,1.21,1.21,0,0,0-.35.68,1.88,1.88,0,0,0,.07.9,2.52,2.52,0,0,0,.49.89,2.68,2.68,0,0,0,.91.68A2.86,2.86,0,0,0,59.13,48.35Zm-.71-7a4,4,0,0,0,1.14,1.14,2.47,2.47,0,0,0,1.28.41,1.4,1.4,0,0,0,.82-.26,1.38,1.38,0,0,0,.5-.61,2.2,2.2,0,0,0,.17-.86,3.45,3.45,0,0,0-.17-1,4.1,4.1,0,0,0-.52-1,4,4,0,0,0-1.17-1.13,2.44,2.44,0,0,0-1.25-.4,1.39,1.39,0,0,0-.82.24,1.48,1.48,0,0,0-.5.63,2,2,0,0,0-.18.86,3.07,3.07,0,0,0,.18,1A3.6,3.6,0,0,0,58.42,41.39Z"/><path class="cls-1" d="M15.41,56.06a5.51,5.51,0,0,1-.87,0,1.16,1.16,0,0,1-.61.24.39.39,0,0,1-.2-.05c-.06,0-.09-.06-.09-.1s.06-.07.18-.1a3.7,3.7,0,0,1,.62,0h.08a2.43,2.43,0,0,0,.63-.61,1.07,1.07,0,0,0,.28-.61.23.23,0,0,0-.09-.19.36.36,0,0,0-.25-.08,1.27,1.27,0,0,0-.92.59,6.39,6.39,0,0,0-.79,1.36,15.68,15.68,0,0,1-.4,1.56c-.13.42-.25.6-.35.54a.13.13,0,0,1,0-.08,1.78,1.78,0,0,1,.12-.5c.08-.23.22-.6.42-1.1a1,1,0,0,1,.07-.19l.08-.21c.08-.41.15-.78.21-1.12a5.06,5.06,0,0,0,.09-.66h.06c0,.08,0,.27-.07.55s-.1.61-.16,1A5.72,5.72,0,0,1,14.21,55a1.19,1.19,0,0,1,.87-.52h.12a.3.3,0,0,1,.28.31,1.13,1.13,0,0,1-.26.62,2.94,2.94,0,0,1-.61.61,6.27,6.27,0,0,0,.8,0,1.11,1.11,0,0,0,.54-.21l0,0A1.17,1.17,0,0,1,15.41,56.06Zm-2.5,2c.1-.31.21-.73.32-1.23-.21.55-.37,1-.47,1.25s-.13.43-.09.44S12.81,58.42,12.91,58.1Zm1-1.8a1,1,0,0,0,.52-.19h0a3.6,3.6,0,0,0-.6,0c-.08,0-.12,0-.12.07s0,0,.07.06A.33.33,0,0,0,13.93,56.3Z"/><path class="cls-1" d="M18.27,56.17a1.27,1.27,0,0,1-.51.13.34.34,0,0,1-.15,0c-.1,0-.15-.14-.15-.32a4.37,4.37,0,0,1,.06-.51,3.89,3.89,0,0,0,.05-.48c0-.08,0-.12-.05-.12s-.13.08-.25.25-.3.45-.54.84-.41.65-.55.86-.25.31-.33.33-.1,0-.1-.11a2.88,2.88,0,0,1,.2-.73c.13-.37.38-1,.74-1.93.23-.59.4-1,.52-1.36a2.26,2.26,0,0,0,.14-.47s0,0-.08.12l-.06.15-.05,0a2.44,2.44,0,0,1,.13-.25c0-.05.06-.06.09-.05a.06.06,0,0,1,0,.05,2.37,2.37,0,0,1-.14.52c-.1.27-.27.71-.52,1.34A16.42,16.42,0,0,0,15.82,57s0,.06,0,.05a4.14,4.14,0,0,0,.83-1.15l.54-.84q.23-.3.33-.3c.05,0,.08.07.08.21a2.24,2.24,0,0,1-.06.48,3.58,3.58,0,0,0-.06.49c0,.15,0,.24.12.28l.14,0a1.23,1.23,0,0,0,.49-.14,4.68,4.68,0,0,0,.54-.3l0,0A3.39,3.39,0,0,1,18.27,56.17Z"/><path class="cls-1" d="M20.05,56.13a2,2,0,0,1-.47.57.63.63,0,0,1-.5.2.15.15,0,0,1-.15-.1.44.44,0,0,1-.05-.25A1.77,1.77,0,0,1,19,56a.19.19,0,0,1-.05-.14.45.45,0,0,1,.09-.24,1.48,1.48,0,0,1,.25-.25,2,2,0,0,1,.2-.26l.05,0-.13.13A1.18,1.18,0,0,1,20,55c.21,0,.31.12.31.35a1.49,1.49,0,0,1-.21.68,4.36,4.36,0,0,0,1.23-.26v0A4.84,4.84,0,0,1,20.05,56.13Zm-.51.53a2.34,2.34,0,0,0,.44-.53h-.24A1.23,1.23,0,0,1,19,56a1.9,1.9,0,0,0-.1.57q0,.27.15.3A.58.58,0,0,0,19.54,56.66ZM19,55.88a2.17,2.17,0,0,1,.19-.4.48.48,0,0,0-.21.33A.25.25,0,0,0,19,55.88Zm.64-.7a1.51,1.51,0,0,0-.35.2,3,3,0,0,0-.26.54.49.49,0,0,0,.28.12,2,2,0,0,0,.46.05H20a1.58,1.58,0,0,0,.23-.69c0-.2-.09-.29-.26-.29A.88.88,0,0,0,19.66,55.18Z"/><path class="cls-1" d="M23.24,53.45a5.05,5.05,0,0,0,.68-.07v.06c-.37,0-.82.07-1.32.09h-.27c-.27.69-.53,1.44-.8,2.27-.12.46-.25,1-.38,1.68-.07.37-.12.61-.15.74s-.08.21-.12.21a.11.11,0,0,1-.08,0s0,0,0-.09a1.93,1.93,0,0,1,.08-.48q.15-.65.6-2l.11-.38.05-.16c.09-.32.17-.6.23-.84a2.42,2.42,0,0,0,.09-.59.36.36,0,0,0-.09-.29,2.93,2.93,0,0,0-.52.11l-.06,0s0,0,0-.06a.62.62,0,0,1,.17-.12.59.59,0,0,1,.23-.05.36.36,0,0,1,.21.05h0l.41,0a3.25,3.25,0,0,1,.38-.79l0,0a3.68,3.68,0,0,0-.36.74h.25Zm-2,3.15c-.16.5-.28.92-.36,1.25s-.1.5-.07.5.06-.05.09-.17a6.26,6.26,0,0,0,.16-.69C21.18,57.07,21.24,56.77,21.28,56.6Zm.39-3.08a.32.32,0,0,0-.13,0l-.11,0s0,0,0,0a1.39,1.39,0,0,1,.37-.08Zm.61,0-.35,0a.51.51,0,0,1,.06.28,3.88,3.88,0,0,1-.15.88C22,54.35,22.12,54,22.28,53.54Z"/><path class="cls-1" d="M23.51,56.13a2,2,0,0,1-.46.57.64.64,0,0,1-.5.2.17.17,0,0,1-.16-.1.55.55,0,0,1-.05-.25,1.77,1.77,0,0,1,.12-.6.24.24,0,0,1-.05-.14.47.47,0,0,1,.1-.24,1,1,0,0,1,.25-.25,1.37,1.37,0,0,1,.2-.26l0,0-.12.13a1.12,1.12,0,0,1,.56-.2c.21,0,.32.12.32.35a1.53,1.53,0,0,1-.22.68,4.36,4.36,0,0,0,1.23-.26l0,0A4.91,4.91,0,0,1,23.51,56.13Zm-.51.53a2.34,2.34,0,0,0,.44-.53H23.2a1.19,1.19,0,0,1-.7-.15,2,2,0,0,0-.11.57c0,.18.05.28.16.3A.55.55,0,0,0,23,56.66Zm-.52-.78a3.16,3.16,0,0,1,.19-.4.5.5,0,0,0-.2.33A.2.2,0,0,0,22.48,55.88Zm.64-.7a1.45,1.45,0,0,0-.34.2,2.48,2.48,0,0,0-.26.54.45.45,0,0,0,.27.12,2.09,2.09,0,0,0,.46.05h.22a1.58,1.58,0,0,0,.23-.69c0-.2-.08-.29-.25-.29A.88.88,0,0,0,23.12,55.18Z"/><path class="cls-1" d="M26.68,56.69v.14a1.79,1.79,0,0,1-.26.82,2.18,2.18,0,0,1-.57.63,1,1,0,0,1-.58.25.28.28,0,0,1-.15,0,.15.15,0,0,1-.1-.13c0-.15.16-.39.47-.71a10.63,10.63,0,0,1,1.13-1,.9.9,0,0,0-.06-.27l-.16-.29a1.35,1.35,0,0,1-.13-.21.42.42,0,0,1,0-.2.62.62,0,0,1,.06-.26l-.34.23-.13.1a.75.75,0,0,1,0,.17l-.06,0a.41.41,0,0,0,0-.1l-.25.18-.61.46a.62.62,0,0,1-.32.14s-.07,0-.07-.07a.73.73,0,0,1,.17-.38,2.55,2.55,0,0,1,.4-.47.94.94,0,0,1,.4-.27l.11,0a.2.2,0,0,1,.18.09.45.45,0,0,1,.05.22l.1-.07.17-.11.26-.17a1,1,0,0,1,.21-.21.37.37,0,0,1,.2-.08s0,0,0,.06l-.24.15-.18.12a.63.63,0,0,0-.1.31.48.48,0,0,0,0,.18l.12.21a1.58,1.58,0,0,1,.15.24.89.89,0,0,1,.08.29,8.4,8.4,0,0,1,1.21-.81l0,0A8.05,8.05,0,0,0,26.68,56.69Zm-.91-.95a.34.34,0,0,0,0-.21.16.16,0,0,0-.15-.09l-.11,0a1.35,1.35,0,0,0-.45.33,3.68,3.68,0,0,0-.38.5c-.09.16-.11.24,0,.24a.86.86,0,0,0,.3-.14c.14-.1.34-.24.58-.43Zm.85,1a10.74,10.74,0,0,0-1.08,1c-.3.31-.45.52-.45.65a.08.08,0,0,0,.05.08.32.32,0,0,0,.14,0,1,1,0,0,0,.54-.24,2.18,2.18,0,0,0,.55-.61,1.7,1.7,0,0,0,.25-.79Zm-.13-1.47.24-.16A.48.48,0,0,0,26.49,55.27Z"/><path class="cls-1" d="M29.35,55.3a.39.39,0,0,1-.16-.1L29,55.11a.27.27,0,0,0-.18,0c-.18,0-.33.16-.46.43a4.27,4.27,0,0,0-.28.83,2.82,2.82,0,0,1-.1.33c0,.07-.08.09-.13.07a.08.08,0,0,1,0-.07,2,2,0,0,1,.06-.29l.05-.17A.83.83,0,0,1,28,56l.16-.59A2,2,0,0,0,28.2,55c0-.05,0-.1,0-.12h0a.38.38,0,0,1,0,.12,2.68,2.68,0,0,1-.05.46c0,.17-.09.36-.16.58l-.05.19a.93.93,0,0,0,0,.13l0,.11,0,.17s0,.06,0,.06.08-.13.14-.37c.2-.81.46-1.23.77-1.29h.1l.15,0,.16.09.16.09a.48.48,0,0,0,.18,0v0A.66.66,0,0,1,29.35,55.3Z"/><path class="cls-1" d="M32.68,55.85a3.93,3.93,0,0,1-.53.25,1.82,1.82,0,0,1-.59.14.32.32,0,0,1-.32-.16.89.89,0,0,1-.08-.44c0-.16,0-.25,0-.29a.08.08,0,0,0-.08-.06.6.6,0,0,0-.26.14l.05.1-.05,0,0-.08c-.11.09-.3.27-.56.53l-.28.27a2.23,2.23,0,0,1-.27.23.44.44,0,0,1-.2.07.12.12,0,0,1-.13-.13,1,1,0,0,1,.2-.5,2.58,2.58,0,0,1,.49-.55.86.86,0,0,1,.53-.24.16.16,0,0,1,.14.06.5.5,0,0,1,.1.17c.16-.12.27-.17.35-.14a.09.09,0,0,1,.07.06.29.29,0,0,1,0,.12,4.26,4.26,0,0,0,0,.43.52.52,0,0,0,.08.24.3.3,0,0,0,.24.09,1.71,1.71,0,0,0,.57-.13,2.62,2.62,0,0,0,.52-.24ZM30,56.06a8.2,8.2,0,0,1,.7-.65.94.94,0,0,0-.08-.15.17.17,0,0,0-.12,0,.75.75,0,0,0-.5.24,2.34,2.34,0,0,0-.46.53,1,1,0,0,0-.19.44.08.08,0,0,0,0,.07s.1,0,.19,0a1.54,1.54,0,0,0,.27-.22Z"/><path class="cls-1" d="M34.8,56.06a5.51,5.51,0,0,1-.87,0,1.16,1.16,0,0,1-.61.24.39.39,0,0,1-.2-.05c-.06,0-.09-.06-.09-.1s.06-.07.18-.1a3.7,3.7,0,0,1,.62,0h.08a2.43,2.43,0,0,0,.63-.61,1.07,1.07,0,0,0,.28-.61.23.23,0,0,0-.09-.19.36.36,0,0,0-.25-.08,1.27,1.27,0,0,0-.92.59,6.39,6.39,0,0,0-.79,1.36,15.68,15.68,0,0,1-.4,1.56c-.13.42-.25.6-.35.54a.13.13,0,0,1,0-.08,1.78,1.78,0,0,1,.12-.5c.08-.23.22-.6.42-1.1a1,1,0,0,1,.07-.19l.08-.21c.08-.41.15-.78.21-1.12a5.06,5.06,0,0,0,.09-.66h.06c0,.08,0,.27-.07.55s-.1.61-.16,1A5.72,5.72,0,0,1,33.6,55a1.18,1.18,0,0,1,.87-.52h.12a.3.3,0,0,1,.28.31,1.13,1.13,0,0,1-.26.62,2.94,2.94,0,0,1-.61.61,6.27,6.27,0,0,0,.8,0,1.11,1.11,0,0,0,.54-.21l0,0A1.17,1.17,0,0,1,34.8,56.06Zm-2.5,2c.1-.31.21-.73.32-1.23-.22.55-.37,1-.47,1.25s-.13.43-.09.44S32.2,58.42,32.3,58.1Zm1-1.8a1,1,0,0,0,.52-.19h0a3.6,3.6,0,0,0-.6,0c-.08,0-.12,0-.12.07s0,0,.07.06A.33.33,0,0,0,33.32,56.3Z"/><path class="cls-1" d="M37.66,56.17a1.27,1.27,0,0,1-.51.13.34.34,0,0,1-.15,0c-.1,0-.15-.14-.15-.32a4.37,4.37,0,0,1,.06-.51A3.89,3.89,0,0,0,37,55c0-.08,0-.12-.05-.12s-.13.08-.25.25-.3.45-.54.84-.41.65-.55.86-.25.31-.33.33-.1,0-.1-.11a2.88,2.88,0,0,1,.2-.73c.13-.37.38-1,.74-1.93.23-.59.4-1,.52-1.36a2.26,2.26,0,0,0,.14-.47s0,0-.08.12a1.41,1.41,0,0,0-.06.15l-.05,0a2.44,2.44,0,0,1,.13-.25c0-.05.06-.06.09-.05a.06.06,0,0,1,0,.05,2.37,2.37,0,0,1-.14.52c-.1.27-.27.71-.52,1.34A16.42,16.42,0,0,0,35.21,57s0,.06,0,.05a4.14,4.14,0,0,0,.83-1.15l.54-.84q.22-.3.33-.3c.05,0,.08.07.08.21a2.24,2.24,0,0,1-.06.48,3.58,3.58,0,0,0-.06.49c0,.15,0,.24.12.28l.14,0a1.28,1.28,0,0,0,.49-.14,4.68,4.68,0,0,0,.54-.3l0,0A3.39,3.39,0,0,1,37.66,56.17Z"/><path class="cls-1" d="M39.92,57q0,.14,0,.21a1.3,1.3,0,0,1-.34.67,2.39,2.39,0,0,1-.59.48,1,1,0,0,1-.49.16c-.08,0-.12,0-.12-.1s.14-.3.42-.56A13.8,13.8,0,0,1,39.86,57a2.18,2.18,0,0,0,0-.35c0-.12,0-.24-.05-.35a4.43,4.43,0,0,1,0-.47,1.49,1.49,0,0,1,0-.28,5,5,0,0,1-.65.44,1.3,1.3,0,0,1-.56.17h-.07c-.1,0-.14-.09-.14-.21a1,1,0,0,1,.09-.37,1.49,1.49,0,0,1,.18-.34l0,0a1.66,1.66,0,0,0-.17.33,1.13,1.13,0,0,0-.08.35c0,.09,0,.14.09.16h.08a1.13,1.13,0,0,0,.55-.19,6.54,6.54,0,0,0,.67-.45.83.83,0,0,1,.19-.27.37.37,0,0,1,.2-.11s0,0,0,0v.06a1.49,1.49,0,0,1-.13.13l-.25.2v0a.87.87,0,0,0-.05.28,3.08,3.08,0,0,0,.06.47c0,.11,0,.22,0,.33a1.27,1.27,0,0,1,0,.33c.32-.23.64-.45,1-.65a8.38,8.38,0,0,1,.79-.45l0,0A12.12,12.12,0,0,0,39.92,57Zm-.06.05c-.41.31-.76.59-1,.84s-.41.43-.41.51,0,0,0,.05h.07a1.08,1.08,0,0,0,.47-.17,2.36,2.36,0,0,0,.55-.46,1.43,1.43,0,0,0,.32-.64Zm.27-1.9L40,55.2a.76.76,0,0,0-.11.14l.18-.15.08-.08S40.16,55.1,40.13,55.12Z"/><path class="cls-1" d="M47.06,55.71l-.54,0-.69,0h0v.06A9.71,9.71,0,0,0,45.65,57h-.06a9.2,9.2,0,0,1,.13-1.23v0l-.58,0a5.6,5.6,0,0,0-.64,0v-.06a5.72,5.72,0,0,1,.64,0h.59a7.37,7.37,0,0,0,.11-1.2h.06a7.24,7.24,0,0,1-.1,1.21h1.24Z"/><path class="cls-1" d="M51.05,58.58a.67.67,0,0,0,.06-.12.43.43,0,0,0,0-.13h.05a1,1,0,0,1-.1.25c0,.07-.08.1-.11.1s0,0,0,0a.11.11,0,0,1,0-.08,12.68,12.68,0,0,1,.28-1.87c.17-.77.35-1.51.55-2.21-.13.23-.26.46-.4.69,0,0,0,.1,0,.17s0,.16,0,.27h0c0-.09,0-.21,0-.36a7.55,7.55,0,0,1-.76,1.06c-.23.28-.42.41-.57.41s-.16-.06-.16-.2a1.62,1.62,0,0,1,.21-.66,4.08,4.08,0,0,1,.5-.75.93.93,0,0,1,.51-.35.2.2,0,0,1,.21.07.52.52,0,0,1,.1.25q.22-.36.48-.84c.13-.43.25-.76.35-1s.19-.37.25-.37.05,0,.06.07a1.52,1.52,0,0,1-.15.43c-.12.25-.27.55-.45.89-.21.7-.41,1.45-.59,2.26A16,16,0,0,0,51,58.58S51,58.61,51.05,58.58Zm-.5-2.29a9,9,0,0,0,.79-1.12.5.5,0,0,0-.07-.25.15.15,0,0,0-.14-.09.77.77,0,0,0-.5.33,4,4,0,0,0-.5.74,1.64,1.64,0,0,0-.21.64c0,.08,0,.13.08.14S50.31,56.57,50.55,56.29Zm1.76-3.14A8.47,8.47,0,0,0,52,54c.14-.28.26-.52.34-.72a1,1,0,0,0,.12-.32C52.45,52.89,52.4,53,52.31,53.15Z"/><path class="cls-1" d="M54.73,55.85a2.07,2.07,0,0,1-.58.47,3.84,3.84,0,0,1-.8.36,2.62,2.62,0,0,1-.75.14.52.52,0,0,1-.46-.17.28.28,0,0,1-.06-.18.6.6,0,0,1,.07-.27,1.8,1.8,0,0,1,.2-.31l-.12,0,0,0,.14,0a2.07,2.07,0,0,1,.39-.34.82.82,0,0,1,.38-.13c.15,0,.22.05.22.14a.24.24,0,0,1-.1.18.69.69,0,0,1-.27.16,1.12,1.12,0,0,1-.38.06h-.22a1.08,1.08,0,0,0-.2.29.77.77,0,0,0-.07.27.24.24,0,0,0,0,.15c.06.1.2.15.41.15a2.28,2.28,0,0,0,.71-.13,4,4,0,0,0,.8-.35,2.26,2.26,0,0,0,.59-.47Zm-1.57-.43a.67.67,0,0,0-.35.12,1.49,1.49,0,0,0-.36.31h.19a1.23,1.23,0,0,0,.35,0,.82.82,0,0,0,.25-.14.2.2,0,0,0,.09-.15s0-.06,0-.06A.2.2,0,0,0,53.16,55.42Z"/><path class="cls-1" d="M56.55,56.21a1.39,1.39,0,0,1-.41.49,2.56,2.56,0,0,1-.61.4,1.24,1.24,0,0,1-.52.16c-.1,0-.15,0-.15-.1s.16-.24.5-.44a7.27,7.27,0,0,1,1.15-.54.64.64,0,0,0,0-.22c0-.18-.12-.27-.35-.27a3.24,3.24,0,0,0-.7.12,2.28,2.28,0,0,1-.48.09c-.11,0-.17,0-.17-.12a.85.85,0,0,1,.23-.46,3.58,3.58,0,0,1,.52-.51.89.89,0,0,1,.43-.22c.06,0,.09,0,.09.1a.37.37,0,0,1,0,.15,2.06,2.06,0,0,1-.15.24,2.06,2.06,0,0,0-.17.3.3.3,0,0,0,0,.19l-.06,0a.36.36,0,0,1,0-.22c0-.08.11-.19.19-.32a.93.93,0,0,0,.18-.36s0,0-.05,0a.72.72,0,0,0-.36.2,3,3,0,0,0-.48.46,1.16,1.16,0,0,0-.26.46q0,.09.12.09a2.45,2.45,0,0,0,.49-.09l.27-.07a1.76,1.76,0,0,1,.42-.06c.24,0,.37.1.4.29v0a.46.46,0,0,1,0,.19,7.15,7.15,0,0,1,1.14-.34l0,0A6.19,6.19,0,0,0,56.55,56.21Zm-1.08.86a3.4,3.4,0,0,0,.59-.37,1.75,1.75,0,0,0,.42-.46,8.08,8.08,0,0,0-1.1.53c-.31.19-.47.32-.47.39s0,.05.1.05A1.13,1.13,0,0,0,55.47,57.07Z"/><path class="cls-1" d="M60.14,55.85a3.24,3.24,0,0,1-.53.47,3.63,3.63,0,0,1-.72.41,1.88,1.88,0,0,1-.73.17.49.49,0,0,1-.35-.11.39.39,0,0,1-.12-.31,1.69,1.69,0,0,1,.29-.82l.06,0a1.78,1.78,0,0,0-.28.8q0,.36.39.36a1.8,1.8,0,0,0,.71-.16,3.85,3.85,0,0,0,.71-.41,3.18,3.18,0,0,0,.53-.46Zm-2-1,.06,0a.08.08,0,0,0,0,0l0-.05.06,0,0,0c.12-.05.2-.08.24-.06a.05.05,0,0,1,0,0c0,.06,0,.12-.13.19a.35.35,0,0,1-.22.1.05.05,0,0,1-.06-.06.36.36,0,0,1,0-.1Zm.1,0c0,.08,0,.13,0,.14a.24.24,0,0,0,.12,0,.69.69,0,0,0,.15-.13s0-.07,0-.07A.5.5,0,0,0,58.26,54.9Z"/><path class="cls-1" d="M62,56.69v.14a1.68,1.68,0,0,1-.26.82,2.3,2.3,0,0,1-.56.63,1,1,0,0,1-.59.25.33.33,0,0,1-.15,0,.14.14,0,0,1-.09-.13c0-.15.15-.39.46-.71a10.63,10.63,0,0,1,1.13-1,.9.9,0,0,0-.06-.27,2.3,2.3,0,0,0-.16-.29,1.35,1.35,0,0,1-.13-.21.59.59,0,0,1,0-.2.62.62,0,0,1,.06-.26l-.34.23-.12.1,0,.17-.06,0a.41.41,0,0,0,0-.1l-.24.18-.62.46a.6.6,0,0,1-.31.14c-.06,0-.08,0-.08-.07a.83.83,0,0,1,.17-.38,3,3,0,0,1,.4-.47,1,1,0,0,1,.4-.27l.11,0a.2.2,0,0,1,.18.09.36.36,0,0,1,.06.22l.09-.07.17-.11.26-.17a.88.88,0,0,1,.22-.21.35.35,0,0,1,.19-.08s0,0,0,.06l-.24.15-.17.12a.54.54,0,0,0-.1.31.34.34,0,0,0,0,.18,1.08,1.08,0,0,0,.11.21,1.58,1.58,0,0,1,.15.24.89.89,0,0,1,.08.29,9,9,0,0,1,1.21-.81l0,0A9.17,9.17,0,0,0,62,56.69Zm-.91-.95a.34.34,0,0,0,0-.21.16.16,0,0,0-.15-.09l-.11,0a1.35,1.35,0,0,0-.45.33,3.54,3.54,0,0,0-.37.5q-.15.24-.06.24a.73.73,0,0,0,.3-.14c.15-.1.34-.24.58-.43Zm.85,1a9.57,9.57,0,0,0-1.07,1c-.3.31-.45.52-.45.65s0,.07.05.08a.25.25,0,0,0,.13,0,1,1,0,0,0,.54-.24,2.18,2.18,0,0,0,.55-.61,1.7,1.7,0,0,0,.25-.79Zm-.13-1.47.24-.16A.48.48,0,0,0,61.83,55.27Z"/><path class="cls-1" d="M66.62,56.12a3.71,3.71,0,0,1-.64.25,2.32,2.32,0,0,1-.64.11.85.85,0,0,1-.3,0,.32.32,0,0,1-.19-.34,1.3,1.3,0,0,1,0-.26.81.81,0,0,0,0-.17,1.32,1.32,0,0,0,.07-.34.1.1,0,0,0,0-.07.06.06,0,0,0,0,0,.67.67,0,0,0-.44.28,7.4,7.4,0,0,0-.56.73c-.15.22-.27.38-.36.49s-.17.16-.24.16l-.06,0s-.07-.1-.07-.2a2.51,2.51,0,0,1,.15-.7c.09-.32.24-.72.44-1.22h.06a7.47,7.47,0,0,0-.6,1.91c0,.08,0,.13,0,.15s.11,0,.19-.08a6.3,6.3,0,0,0,.39-.54,7.75,7.75,0,0,1,.58-.75.7.7,0,0,1,.48-.27c.08,0,.12,0,.12.13a1.6,1.6,0,0,1-.07.36,1.81,1.81,0,0,0-.08.43.25.25,0,0,0,.16.27.56.56,0,0,0,.28.05,2.15,2.15,0,0,0,.62-.1,3.72,3.72,0,0,0,.64-.26,1,1,0,0,0,.36-.25l0,0A1.09,1.09,0,0,1,66.62,56.12Z"/><polygon class="cls-1" points="79.09 38.29 79.68 37.03 79.66 38.42 80.74 37.55 80.12 38.79 81.47 38.47 80.38 39.32 81.74 39.61 80.38 39.91 81.47 40.76 80.12 40.44 80.74 41.68 79.66 40.81 79.68 42.19 79.09 40.94 78.5 42.19 78.52 40.81 77.44 41.68 78.06 40.44 76.71 40.76 77.8 39.91 76.44 39.61 77.8 39.32 76.71 38.47 78.06 38.79 77.44 37.55 78.52 38.42 78.5 37.03 79.09 38.29"/><polygon class="cls-1" points="2.65 38.74 3.23 37.49 3.22 38.88 4.29 38 3.68 39.24 5.03 38.92 3.94 39.77 5.29 40.07 3.94 40.36 5.03 41.21 3.68 40.89 4.29 42.13 3.22 41.26 3.23 42.65 2.65 41.39 2.06 42.65 2.07 41.26 1 42.13 1.61 40.89 0.26 41.21 1.36 40.36 0 40.07 1.36 39.77 0.26 38.92 1.61 39.24 1 38 2.07 38.88 2.06 37.49 2.65 38.74"/><path class="cls-1" d="M40.87,79.23A39.42,39.42,0,0,1,2.28,48.61L3,48.44a38.88,38.88,0,0,0,75.72,0l.73.17A39.43,39.43,0,0,1,40.87,79.23Z"/><path class="cls-1" d="M3,30.79l-.73-.17a39.63,39.63,0,0,1,77.18,0l-.73.17A38.88,38.88,0,0,0,3,30.79Z"/></g></g></svg>